<svg width="5" height="10" viewBox="0 0 5 10" fill="none" xmlns="http://www.w3.org/2000/svg">
<g id="chevron.forward">
<g id="Group">
<path id="Vector" d="M5 4.99713C5 4.85319 4.94891 4.72078 4.85176 4.61715L0.80266 0.149683C0.710638 0.0518135 0.59816 0 0.465238 0C0.2045 0 0 0.224525 0 0.523893C0 0.667819 0.0511251 0.800231 0.132925 0.898096L3.85482 4.99713L0.132925 9.09612C0.0511251 9.19398 0 9.32068 0 9.47032C0 9.76969 0.2045 9.99425 0.465238 9.99425C0.59816 9.99425 0.710638 9.94242 0.80266 9.83877L4.85176 5.37707C4.94891 5.26772 5 5.14102 5 4.99713Z" fill="black" fill-opacity="0.85"/>
</g>
</g>
</svg>
