<svg width="15" height="16" viewBox="0 0 15 16" fill="none" xmlns="http://www.w3.org/2000/svg">
<g id="Apple logo" clip-path="url(#clip0_1763_1073)">
<path id="Vector" d="M12.2328 8.42724C12.2253 7.1206 12.8465 6.1344 14.1038 5.4081C13.4003 4.45038 12.3376 3.92345 10.9344 3.8202C9.606 3.72052 8.15414 4.55719 7.62279 4.55719C7.0615 4.55719 5.77429 3.85581 4.76397 3.85581C2.67598 3.88785 0.457031 5.44014 0.457031 8.59813C0.457031 9.53093 0.636643 10.4946 0.995866 11.4891C1.47483 12.7957 3.20359 16 5.00719 15.9466C5.95016 15.9252 6.61622 15.3093 7.84356 15.3093C9.03349 15.3093 9.6509 15.9466 10.7024 15.9466C12.5209 15.9217 14.0851 13.0093 14.5416 11.6992C12.1019 10.6061 12.2328 8.49488 12.2328 8.42724ZM10.1149 2.58122C11.1364 1.42768 11.0429 0.377392 11.013 0C10.1112 0.0498442 9.06717 0.58389 8.4722 1.24255C7.81737 1.94749 7.43195 2.81976 7.51427 3.8024C8.49091 3.87361 9.38149 3.39653 10.1149 2.58122Z" fill="black"/>
</g>
<defs>
<clipPath id="clip0_1763_1073">
<rect width="15" height="16" fill="white"/>
</clipPath>
</defs>
</svg>
