<svg width="34" height="28" viewBox="0 0 34 28" fill="none" xmlns="http://www.w3.org/2000/svg">
<g id="Bose logo">
<g id="Group">
<path id="Vector" fill-rule="evenodd" clip-rule="evenodd" d="M27.2319 12.9363H32.9368L33.4999 12.4102H25.3301L23.0633 15.5924H28.3578L28.7381 15.0661H25.7105L26.2886 14.2643H29.3161L29.6812 13.7381H26.6689L27.2319 12.9363ZM22.8656 13.7381H20.6138L20.9789 13.2243C21.1311 13.0114 21.268 12.9363 21.4964 12.9363C21.7245 12.9363 21.8007 13.0866 21.679 13.2746H23.9761L24.2042 12.9363C24.3716 12.6857 24.3716 12.4102 23.9609 12.4102H19.914C19.5489 12.4102 19.2598 12.4478 19.0469 12.7358L18.332 13.7381C18.1343 14.0263 18.1494 14.2644 18.6363 14.2644H20.9637L20.5834 14.8157C20.4769 14.966 20.3402 15.0663 20.0206 15.0663C19.7466 15.0663 19.7622 14.9159 19.8839 14.7657H17.6018L17.3278 15.1415C17.1604 15.3796 17.2975 15.5925 17.693 15.5925H21.7093C22.0745 15.5925 22.3939 15.4547 22.5765 15.2041L23.261 14.2644C23.4132 14.0263 23.3372 13.7381 22.8656 13.7381Z" fill="black"/>
<path id="Vector_2" fill-rule="evenodd" clip-rule="evenodd" d="M32.64 13.029C32.4542 13.029 32.3038 13.1492 32.3038 13.296C32.3038 13.4459 32.4544 13.566 32.64 13.566C32.8247 13.566 32.9742 13.4457 32.9742 13.296C32.9741 13.1492 32.8247 13.029 32.64 13.029ZM32.64 13.5136C32.4885 13.5136 32.3671 13.4186 32.3671 13.296C32.3671 13.1773 32.4885 13.0814 32.64 13.0814C32.7896 13.0814 32.9104 13.1773 32.9104 13.296C32.9104 13.4186 32.7896 13.5136 32.64 13.5136ZM17.6783 12.4102H14.24C13.7683 12.4102 13.1598 12.4102 12.7947 12.9363L11.2733 15.0661C11.0602 15.3543 11.243 15.5924 11.6384 15.5924H15.6395C16.0503 15.5924 16.3088 15.4922 16.6283 15.0661L18.1496 12.9363C18.3477 12.6606 18.0435 12.4102 17.6783 12.4102ZM15.7462 13.2243L14.6051 14.8155C14.4531 15.0411 14.316 15.0661 13.966 15.0661C13.6163 15.0661 13.5249 14.966 13.6314 14.8155L14.7877 13.2243C14.9551 12.9863 15.1528 12.9363 15.4417 12.9363C15.7306 12.9363 15.8982 13.0114 15.7462 13.2243ZM11.6538 12.4102H7.24176L5.34011 15.0661H1.14117L0.5 15.5924H9.61507C10.1779 15.5924 10.3605 15.3668 10.4822 15.1913L10.9385 14.54C11.0602 14.3645 11.0602 14.164 10.8168 14.0513C11.0608 14.0513 11.3948 13.9136 11.5927 13.6254L12.0491 12.9864C12.2775 12.6732 12.0035 12.4102 11.6538 12.4102ZM9.38682 14.5525L9.15875 14.8532C9.09789 14.9532 8.99136 15.0661 8.73259 15.0661H7.60688L8.18544 14.2643H9.28046C9.47819 14.2643 9.47819 14.4148 9.38682 14.5525ZM10.3453 13.2243L10.1172 13.525C10.0564 13.6253 9.94985 13.738 9.69127 13.738H8.56555L9.14358 12.9361H10.239C10.4365 12.9363 10.4365 13.0866 10.3453 13.2243Z" fill="black"/>
<path id="Vector_3" fill-rule="evenodd" clip-rule="evenodd" d="M32.812 13.2275C32.812 13.2023 32.7982 13.1757 32.7707 13.1628C32.7421 13.1499 32.7104 13.1484 32.679 13.1484H32.5156V13.449H32.5707V13.3104H32.6365L32.7435 13.449H32.8072L32.6934 13.3104C32.7603 13.3088 32.812 13.2867 32.812 13.2275ZM32.6317 13.2731H32.5707V13.1824H32.6678C32.7151 13.1824 32.7564 13.1878 32.7564 13.2266C32.7564 13.2806 32.6844 13.2731 32.6317 13.2731Z" fill="black"/>
</g>
</g>
</svg>
