<svg width="32" height="32" viewBox="0 0 32 32" fill="none" xmlns="http://www.w3.org/2000/svg">
<g id="flashlight.on.circle" clip-path="url(#clip0_1763_874)">
<g id="Group">
<path id="Vector" d="M16 31.9842C24.753 31.9842 32 24.7251 32 15.9921C32 7.2435 24.7373 0 15.9843 0C7.24707 0 0 7.2435 0 15.9921C0 24.7251 7.26276 31.9842 16 31.9842ZM16 29.319C8.5961 29.319 2.68236 23.3925 2.68236 15.9921C2.68236 8.59186 8.58041 2.66536 15.9843 2.66536C23.3883 2.66536 29.3334 8.59186 29.3334 15.9921C29.3334 23.3925 23.404 29.319 16 29.319Z" fill="#060606"/>
<path id="Vector_2" d="M11.8125 7.88565H20.1889V7.58777C20.1889 6.47458 19.64 5.91016 18.5262 5.91016H13.4596C12.3615 5.91016 11.8125 6.47458 11.8125 7.58777V7.88565ZM15.1851 26.0728H16.8008C17.8675 26.0728 18.4477 25.4927 18.4477 24.3952V14.5177C18.4477 13.5613 18.6517 12.9185 18.9968 12.3854L19.4831 11.6328C19.9066 10.9743 20.1889 10.3942 20.1889 9.64165V8.84205H11.8125V9.64165C11.8125 10.3942 12.0949 10.9743 12.5184 11.6328L13.0047 12.3854C13.3498 12.9185 13.5693 13.5613 13.5693 14.5177V24.3952C13.5693 25.4927 14.1341 26.0728 15.1851 26.0728ZM14.4948 17.8886V15.3173C14.4948 14.4863 15.1537 13.8121 16.0007 13.8121C16.8478 13.8121 17.5066 14.4863 17.5066 15.3173V17.8886C17.5066 18.7352 16.8478 19.3937 16.0007 19.3937C15.1537 19.3937 14.4948 18.7352 14.4948 17.8886ZM16.0007 14.3609C15.4518 14.3609 15.0439 14.7842 15.0439 15.3173C15.0439 15.8504 15.4674 16.2894 16.0007 16.2894C16.5498 16.2894 16.9576 15.8504 16.9576 15.3173C16.9576 14.7842 16.5811 14.3609 16.0007 14.3609Z" fill="#060606"/>
</g>
</g>
<defs>
<clipPath id="clip0_1763_874">
<rect width="32" height="32" fill="white"/>
</clipPath>
</defs>
</svg>
