<svg width="35" height="39" viewBox="0 0 35 39" fill="none" xmlns="http://www.w3.org/2000/svg">
<g id="Group">
<path id="Vector" d="M8.01705 36.8975H26.5186C29.8281 36.8975 31.659 35.1547 31.659 31.8276V21.0189H31.7821C33.3312 20.6844 34.1939 19.4346 34.1939 17.639V13.0092C34.1939 10.8615 32.9968 9.50603 30.8491 9.50603H27.2932C28.2262 8.57304 28.7719 7.30556 28.7719 5.84444C28.7719 2.42932 26.0785 0 22.6634 0C20.1989 0 18.1568 1.35549 17.259 3.7144C16.3613 1.35549 14.3368 0 11.8547 0C8.45713 0 5.74616 2.42932 5.74616 5.84444C5.74616 7.30556 6.29187 8.57304 7.24247 9.50603H3.68651C1.62687 9.50603 0.341797 10.8615 0.341797 13.0092V17.639C0.341797 19.4346 1.18678 20.6844 2.73591 21.0189H2.85913V31.8276C2.85913 35.1547 4.68993 36.8975 8.01705 36.8975ZM15.6924 34.257H7.98184C6.52072 34.257 5.69334 33.4296 5.69334 31.9684V21.1421H15.6924V34.257ZM18.8258 34.257V21.1421H28.8246V31.9684C28.8246 33.4296 27.9974 34.257 26.5362 34.257H18.8258ZM15.6924 18.484H4.40827C3.52807 18.484 3.17601 18.1143 3.17601 17.2342V13.3965C3.17601 12.5163 3.52807 12.1642 4.40827 12.1642H15.6924V18.484ZM18.8258 18.484V12.1642H30.1449C31.0252 12.1642 31.3596 12.5163 31.3596 13.3965V17.2342C31.3596 18.1143 31.0252 18.484 30.1449 18.484H18.8258ZM15.8155 9.50603H13.0693C10.3055 9.50603 8.68599 7.93931 8.68599 6.00288C8.68599 4.06647 10.0943 2.93983 12.0307 2.93983C14.1255 2.93983 15.8155 4.52417 15.8155 7.12952V9.50603ZM18.7026 9.50603V7.12952C18.7026 4.52417 20.3926 2.93983 22.4874 2.93983C24.4237 2.93983 25.8321 4.06647 25.8321 6.00288C25.8321 7.93931 24.23 9.50603 21.4487 9.50603H18.7026Z" fill="black" fill-opacity="0.85"/>
</g>
</svg>
