<svg width="20" height="27" viewBox="0 0 20 27" fill="none" xmlns="http://www.w3.org/2000/svg">
<g id="greetingcard" clip-path="url(#clip0_1785_903)">
<g id="Group">
<path id="Vector" d="M2.30859 23.9111L15.6328 26.2666C18.0234 26.6885 19.4766 25.3526 19.4766 22.751V8.25492C19.4766 5.86429 18.2461 4.99711 15.8672 4.57523L2.94141 2.30179C1.16016 1.98539 0 2.95804 0 4.70414V21.251C0 22.751 0.773438 23.6416 2.30859 23.9111ZM2.76562 22.0479C2.16797 21.9424 1.88672 21.6026 1.88672 20.9815V5.02054C1.88672 4.39945 2.30859 4.08304 3 4.18851L15.7734 6.43851C16.957 6.64945 17.5898 7.14164 17.5898 8.23148V22.5401C17.5898 23.876 16.8164 24.544 15.5508 24.3096L2.76562 22.0479ZM16.5469 6.02836H18.4336V3.28617C18.4336 0.813511 16.7812 -0.358363 14.0039 0.133825L1.75781 2.29007L2.46094 3.9307L14.6719 1.90336C15.8438 1.70414 16.5469 2.19632 16.5469 3.21586V6.02836ZM3.44531 9.64945C3.44531 10.6338 4.98047 10.6338 4.98047 9.70804V8.13773C4.98047 7.82132 5.16797 7.6807 5.53125 7.73929L7.07812 8.02054C8.07422 8.19632 8.27344 6.69632 7.38281 6.53226L4.875 6.08695C3.98438 5.93461 3.44531 6.32132 3.44531 7.17679V9.64945ZM14.4961 11.5596C14.4961 12.544 16.0312 12.6377 16.0312 11.5596V9.60257C16.0312 8.51273 15.5039 7.96195 14.2031 7.72757L12.9844 7.51664C11.918 7.32914 11.6602 8.81742 12.7266 9.00492L13.6992 9.1807C14.3906 9.29789 14.4961 9.71976 14.4961 10.0713V11.5596ZM4.98047 17.1143C4.98047 16.1299 3.44531 16.0361 3.44531 17.1143V19.0713C3.44531 20.1611 3.97266 20.7119 5.27344 20.9463L6.49219 21.1572C7.55859 21.3447 7.81641 19.8447 6.75 19.669L5.77734 19.4932C5.08594 19.376 4.98047 18.9541 4.98047 18.6026V17.1143ZM16.0312 19.0244C16.0312 18.0401 14.4961 18.0401 14.4961 18.9658V20.5361C14.4961 20.8526 14.3086 20.9932 13.9453 20.9346L12.3984 20.6533C11.4023 20.4776 11.2031 21.9776 12.0938 22.1416L14.6016 22.5869C15.4922 22.7393 16.0312 22.3526 16.0312 21.4971V19.0244Z" fill="black" fill-opacity="0.85"/>
</g>
</g>
<defs>
<clipPath id="clip0_1785_903">
<rect width="19.4766" height="26.345" fill="white"/>
</clipPath>
</defs>
</svg>
