<svg width="30" height="5" viewBox="0 0 30 5" fill="none" xmlns="http://www.w3.org/2000/svg">
<g id="XMLID_1_">
<path id="XMLID_7_" d="M6.42969 0.171875H4.61269L3.89258 4.23477H5.00703L5.46113 1.07187H5.57305L6.03594 4.23477H7.1498L6.42969 0.171875Z" fill="#074CA1"/>
<path id="XMLID_6_" d="M11.6908 4.23477L11.6398 1.175H11.5367L11.0141 4.23477H9.92539L9.40273 1.175H9.29961L9.24805 4.23477H8.21094L8.37383 0.171875H10.1141L10.4223 2.41777H10.5166L10.8166 0.171875H12.5568L12.7279 4.23477H11.6908Z" fill="#074CA1"/>
<path id="XMLID_5_" d="M18.0771 3.34355L18.0684 0.171875H19.2086V3.2832V3.30078V3.31777L19.2168 3.33477V3.35176V3.36934V3.38633L19.2256 3.39512L19.2344 3.41211V3.4291L19.2426 3.44609L19.2514 3.45488L19.2596 3.47187L19.2684 3.48066L19.2771 3.49766L19.2854 3.50644L19.2941 3.51465L19.3029 3.53223L19.3199 3.54043L19.3281 3.54922L19.3457 3.55801L19.3539 3.56621L19.3715 3.575L19.3797 3.5832L19.3967 3.59199L19.4143 3.60078H19.4225L19.44 3.60898H19.457H19.474L19.491 3.61777H19.5086H19.5256H19.5426H19.5514L19.5684 3.60898H19.5854H19.6029L19.6199 3.60078H19.6369L19.6457 3.59199L19.6627 3.5832L19.6797 3.575L19.6885 3.56621L19.7055 3.55801L19.7143 3.54922L19.7225 3.54043L19.74 3.53223L19.7482 3.51465L19.757 3.50644L19.7652 3.49766L19.774 3.48066L19.7828 3.47187L19.791 3.45488L19.7998 3.44609L19.8086 3.4291L19.8168 3.41211V3.39512L19.8256 3.38633V3.36934V3.35176L19.8344 3.33477V3.31777V3.30078V3.2832V0.171875H20.974V3.36055V3.4291L20.9652 3.48945L20.957 3.55801L20.94 3.61777L20.9225 3.67754L20.9055 3.73789L20.8797 3.78945L20.8457 3.84043L20.8199 3.89199L20.7854 3.94356L20.7426 3.98633L20.7086 4.0291L20.6652 4.07188L20.6143 4.11465L20.5715 4.14922L20.5199 4.1832L20.4684 4.21777L20.4168 4.25176L20.357 4.27754L20.2967 4.31211L20.2369 4.3291L20.1771 4.35488L20.1168 4.37188L20.057 4.39766L19.9885 4.40645L19.9281 4.42344L19.791 4.44922L19.6539 4.45801H19.5256H19.3885L19.2514 4.44043L19.1225 4.42344L19.0539 4.40645L18.9854 4.38945L18.9256 4.37188L18.8652 4.35488L18.8055 4.3291L18.7457 4.30332L18.6854 4.27754L18.6344 4.24356L18.574 4.21777L18.5225 4.1832L18.4715 4.14043L18.4281 4.10645L18.3854 4.06367L18.3426 4.02031L18.2998 3.97754L18.2652 3.92656L18.2312 3.8832L18.1967 3.83223L18.1715 3.77188L18.1457 3.72031L18.1199 3.66055L18.1029 3.60078L18.0941 3.54043L18.0771 3.47187V3.41211V3.34355Z" fill="#074CA1"/>
<path id="XMLID_4_" d="M25.8162 0.171875H24.8307V2.71777H24.8049L23.6564 0.171875H22.4395V4.23477H23.425V1.86055H23.4508L24.5307 4.23477H25.8162V0.171875Z" fill="#074CA1"/>
<path id="XMLID_3_" d="M13.9375 3.43672V2.89648H15.0777L15.0689 3.13672V3.19648V3.24805V3.27383L15.0777 3.29961V3.32539L15.0859 3.35059L15.0947 3.36816V3.37637L15.1035 3.39395L15.1117 3.40215V3.41094L15.1205 3.41914V3.42793L15.1287 3.43672L15.1375 3.44492L15.1463 3.45371L15.1545 3.4625L15.1633 3.4707L15.1721 3.47949L15.1803 3.48828L15.1891 3.49648L15.1973 3.50527H15.2061L15.2148 3.51348L15.2318 3.52227H15.2406L15.2488 3.53105L15.2658 3.53926H15.2834L15.3092 3.54805L15.3432 3.55684H15.3777H15.4117H15.4205H15.4287H15.4375H15.4463H15.4545H15.4633H15.4721H15.4803L15.4891 3.54805L15.5061 3.53926L15.523 3.53105L15.5406 3.52227L15.5576 3.51348L15.5746 3.50527L15.5916 3.48828L15.6092 3.47949L15.6174 3.4625L15.635 3.44492L15.6432 3.42793L15.6602 3.41094L15.6689 3.39395L15.6777 3.36816L15.6859 3.35059L15.6947 3.32539L15.7035 3.30781V3.28203V3.25684V3.23105V3.20527V3.17949V3.14492L15.6947 3.11914L15.6859 3.09395L15.6777 3.05938L15.6602 3.02539L15.6432 2.99961L15.635 2.98203L15.6262 2.96504L15.6174 2.94805L15.6092 2.93926L15.6004 2.92227L15.5916 2.91348L15.5658 2.88828L15.5406 2.8625L15.5148 2.83672L15.4803 2.81914L15.4545 2.79395L15.3859 2.75938L15.3174 2.7166L15.1545 2.63926L14.9746 2.55371L14.7777 2.45059L14.6658 2.39082L14.5633 2.32227L14.4602 2.24492L14.3488 2.15059L14.3318 2.14238L14.3148 2.13359L14.3061 2.1166L14.2891 2.09961L14.2721 2.09082L14.2633 2.07383L14.2287 2.03926L14.2117 2.01348L14.1859 1.9707L14.1602 1.93672L14.1432 1.90215L14.1262 1.85938L14.1092 1.8166L14.0916 1.77383L14.0834 1.73106L14.0576 1.63672L14.0406 1.54238L14.023 1.43926L14.0148 1.34492L14.0061 1.25059V1.15684V1.0625L14.0148 0.976367L14.023 0.890821L14.0318 0.822266L14.0488 0.7625L14.0576 0.710938L14.0746 0.659375L14.1004 0.607813L14.1262 0.565039L14.152 0.513477L14.1777 0.470704L14.2117 0.42793L14.2463 0.393945L14.2803 0.359375L14.323 0.316602L14.3658 0.29082L14.4092 0.256836L14.452 0.231055L14.4947 0.196484L14.5463 0.170703L14.5973 0.153711L14.6488 0.12793L14.7004 0.110937L14.7602 0.0939454L14.8721 0.0593753L14.9834 0.0335939L15.1035 0.0166021L15.223 0.0078125H15.352H15.4721L15.5916 0.0166021L15.7117 0.0335939L15.8318 0.0593753L15.952 0.0851567L16.0545 0.119141L16.1658 0.153711L16.2602 0.196484L16.3117 0.222266L16.3545 0.248047L16.3973 0.273829L16.4406 0.307812L16.4834 0.333594L16.5174 0.368165L16.552 0.393945L16.5859 0.42793L16.6205 0.4625L16.6463 0.496484L16.6721 0.539258L16.6803 0.556836L16.6891 0.573828L16.7061 0.59082L16.7148 0.616602L16.723 0.633594V0.650586L16.7318 0.676367L16.7406 0.693946V0.710938L16.7488 0.736719V0.753711L16.7576 0.779492V0.805274V0.822266V1.38828H15.7205L15.7287 1.14805V1.09648L15.7205 1.04492V1.01914V1.00215L15.7117 0.976367L15.7035 0.959375V0.950586V0.942383L15.6947 0.933594V0.916601L15.6859 0.907813L15.6777 0.89961V0.890821H15.6689L15.6602 0.882031V0.873828L15.652 0.865039L15.6432 0.856836L15.635 0.848047H15.6262L15.6174 0.839258L15.6092 0.831055H15.5916L15.5834 0.822266L15.5746 0.813477H15.5658L15.5488 0.805274H15.5406L15.5061 0.796485L15.4803 0.788282H15.4463H15.4117H15.3777H15.3602H15.3432H15.335L15.3174 0.796485H15.3004L15.2834 0.805274L15.2658 0.813477L15.2576 0.822266H15.2406L15.223 0.839258L15.2061 0.848047L15.1973 0.856836L15.1803 0.865039L15.1721 0.882031L15.1545 0.89961L15.1463 0.907813L15.1375 0.916601L15.1287 0.925391V0.933594L15.1205 0.942383V0.950586L15.1117 0.959375V0.968164L15.1035 0.976367V0.993945V1.00215L15.0947 1.01094V1.01914V1.02793V1.04492V1.05371L15.0859 1.0625V1.07949V1.08828L15.0947 1.10527V1.11348V1.13926L15.1035 1.16504L15.1117 1.19961L15.1205 1.22539L15.1287 1.25059L15.1463 1.28516L15.1721 1.31914L15.2061 1.35371L15.2406 1.38828L15.2658 1.42227L15.335 1.48203L15.4035 1.53359L15.4721 1.58516L15.5488 1.62793L15.6262 1.6707L15.6947 1.70527L15.9947 1.84238L16.1488 1.91094L16.2174 1.94492L16.2859 1.98828L16.3545 2.02227L16.4148 2.06504L16.4488 2.09082L16.4834 2.1166L16.5092 2.14238L16.535 2.16816L16.5602 2.19395L16.5947 2.22793L16.6117 2.2625L16.6375 2.28828L16.6633 2.32227L16.6891 2.36504L16.7061 2.39961L16.723 2.44238L16.7406 2.48516L16.7576 2.52793L16.7746 2.5707L16.7916 2.62227L16.8004 2.67383L16.8092 2.72539L16.8262 2.77637V2.83672L16.8432 2.95684V3.09395L16.835 3.23926L16.8262 3.40215L16.8174 3.4625L16.8092 3.51348L16.7916 3.57383L16.7746 3.62539L16.7488 3.67637L16.723 3.72793L16.6973 3.77949L16.6633 3.82227L16.6287 3.86504L16.5947 3.90781L16.552 3.95059L16.5092 3.99395L16.4658 4.02793L16.423 4.0625L16.3721 4.09649L16.3205 4.12227L16.2689 4.14805L16.2174 4.18203L16.1576 4.19961L16.1061 4.22539L16.0463 4.25059L15.9859 4.26816L15.8576 4.30215L15.7287 4.31914L15.6004 4.33672L15.4721 4.35371H15.3432L15.2061 4.34492L15.0777 4.33672L14.9488 4.31914L14.8287 4.29395L14.7092 4.25938L14.5891 4.2166L14.5375 4.19082L14.4777 4.16504L14.4262 4.13926L14.3834 4.11348L14.3318 4.08828L14.2891 4.05371L14.2463 4.01914L14.2035 3.98516L14.1602 3.95059L14.1262 3.90781L14.0916 3.87383L14.0658 3.83106L14.0318 3.78828L14.023 3.7625L14.0061 3.73672L13.9973 3.71914L13.9891 3.69394L13.9803 3.66817L13.9721 3.64238L13.9633 3.6166L13.9545 3.59082V3.56504L13.9463 3.53926V3.51348L13.9375 3.48828V3.4625V3.43672Z" fill="#074CA1"/>
<path id="XMLID_2_" d="M1.39687 0L1.22578 0.0169927L1.06289 0.0339845L0.985547 0.0509763L0.916992 0.0685546L0.848437 0.0855473L0.779883 0.102539L0.720117 0.12832L0.659766 0.154102L0.6 0.179883L0.548437 0.205664L0.496875 0.231445L0.454102 0.26543L0.411328 0.3L0.368555 0.333984L0.33457 0.368555L0.291211 0.402539L0.26543 0.445313L0.231445 0.479883L0.205664 0.522656L0.179883 0.565429L0.154102 0.608203L0.137109 0.650977L0.111328 0.694336L0.0943359 0.73711L0.0855469 0.779883L0.0685547 0.831446L0.0597656 0.874219L0.0515625 0.916992L0.0427734 0.968555V1.01133L0.0345703 1.10566V1.2L0.0427734 1.29434L0.0515625 1.38867L0.0685547 1.47422L0.0943359 1.55977L0.120117 1.64531L0.145898 1.72266L0.17168 1.8L0.205664 1.86855L0.240234 1.93711L0.274219 1.99688L0.308789 2.04844L0.325781 2.07422L0.342773 2.09121L0.359766 2.1082L0.377344 2.12578L0.394336 2.14277L0.403125 2.15098H0.411328L0.522656 2.24531L0.625781 2.32266L0.737109 2.39121L0.840234 2.45098L1.03711 2.5541L1.21699 2.63965L1.37988 2.71699L1.44844 2.75977L1.51699 2.79434L1.55156 2.81953L1.57734 2.83711L1.60312 2.86289L1.62832 2.88867L1.6541 2.91387L1.66289 2.92266L1.67168 2.93965L1.67988 2.94844L1.68867 2.96543L1.69687 2.98242L1.70566 3L1.72266 3.02578L1.74023 3.05977L1.74844 3.09434L1.75723 3.11953L1.76543 3.14531V3.17988L1.77422 3.20566V3.23145V3.25723L1.76543 3.28242V3.3082L1.75723 3.32578L1.74844 3.35098L1.74023 3.36855L1.73145 3.39434L1.72266 3.41133L1.71445 3.42832L1.69687 3.44531L1.67988 3.46289L1.67168 3.47988L1.6541 3.48867L1.63711 3.50566L1.62012 3.51387L1.61133 3.52266L1.59434 3.53144L1.57734 3.53965L1.55977 3.54844L1.54277 3.55723H1.53457H1.52578H1.51699H1.50879H1.5H1.49121H1.48301H1.47422H1.44023H1.40566L1.37168 3.54844L1.3459 3.53965H1.32832L1.32012 3.53144L1.30312 3.52266H1.29434L1.27734 3.51387L1.26855 3.50566H1.25977L1.25156 3.49687L1.24277 3.48867L1.23457 3.47988L1.22578 3.47109L1.21699 3.46289L1.20879 3.4541L1.2 3.44531L1.19121 3.43711V3.42832L1.18301 3.41953L1.17422 3.41133V3.40254L1.16543 3.39434V3.37676L1.15723 3.36855L1.14844 3.35098V3.32578L1.14023 3.3V3.27422L1.13145 3.24844V3.19688V3.13711L1.14023 2.89688H0V3.43711V3.46289V3.48867L0.00878906 3.51387V3.53965L0.0169922 3.56543V3.59121L0.0257812 3.61699L0.0345703 3.64277L0.0427734 3.66856L0.0515625 3.69434L0.0597656 3.71953L0.0773437 3.73711L0.0855469 3.76289L0.0943359 3.78867L0.12832 3.83145L0.154102 3.87422L0.188672 3.9082L0.222656 3.95098L0.26543 3.98555L0.308789 4.01953L0.351562 4.0541L0.394336 4.08867L0.445898 4.11387L0.496875 4.13965L0.548437 4.16543L0.6 4.19121L0.651562 4.21699L0.77168 4.25977L0.891211 4.29434L1.01133 4.31953L1.14023 4.33711L1.27734 4.34531L1.40566 4.3541H1.53457L1.67168 4.33711L1.8 4.31953L1.92012 4.30254L2.04844 4.26856L2.10879 4.25098L2.16855 4.22578L2.22012 4.2L2.27988 4.18242L2.33145 4.14844L2.38301 4.12266L2.43457 4.09688L2.48555 4.06289L2.52832 4.02832L2.57988 3.99434L2.61445 3.95098L2.65723 3.9082L2.69121 3.86543L2.72578 3.82266L2.75977 3.77988L2.78555 3.72832L2.81133 3.67676L2.83711 3.62578L2.8541 3.57422L2.87168 3.51387L2.87988 3.46289L2.88867 3.40254L2.89687 3.23965L2.90566 3.09434V2.95723L2.89687 2.83711L2.88867 2.77676L2.87988 2.72578L2.86289 2.67422L2.8541 2.62266L2.83711 2.57109L2.82832 2.52832L2.81133 2.48555L2.78555 2.44277L2.76855 2.4L2.75156 2.36543L2.72578 2.32266L2.7 2.28867L2.68301 2.26289L2.65723 2.22832L2.63145 2.19434L2.59687 2.16855L2.57168 2.14277L2.5459 2.11699L2.51133 2.09121L2.48555 2.06543L2.41699 2.02266L2.34844 1.98867L2.27988 1.94531L2.21133 1.91133L2.06543 1.84277L1.75723 1.70566L1.68867 1.67109L1.61133 1.62832L1.54277 1.58555L1.46543 1.53398L1.39687 1.48242L1.33711 1.42266L1.30312 1.38867L1.26855 1.3541L1.24277 1.31953L1.20879 1.28555L1.19121 1.25098L1.18301 1.22578L1.17422 1.2L1.16543 1.16543L1.15723 1.13965V1.11387V1.10566V1.08867V1.07988V1.06289V1.0541V1.04531V1.02832V1.01953V1.01133L1.16543 1.00254V0.994336L1.17422 0.976758V0.968555V0.959766L1.18301 0.950976V0.942773L1.19121 0.933985L1.2 0.925781V0.916992L1.20879 0.908203L1.21699 0.9L1.23457 0.882422L1.24277 0.86543L1.25977 0.857227L1.27734 0.848437L1.28555 0.839649L1.30312 0.822657H1.32012L1.33711 0.813867L1.3459 0.805664L1.36289 0.796875H1.37988L1.39687 0.788672H1.41445H1.42266H1.44023H1.47422H1.50879H1.54277L1.57734 0.796875L1.60312 0.805664H1.61133L1.62832 0.813867H1.63711L1.6459 0.822657L1.66289 0.831446H1.67168L1.67988 0.839649L1.68867 0.848437H1.69687L1.70566 0.857227L1.71445 0.86543L1.72266 0.874219V0.882422L1.73145 0.891211H1.74023L1.74844 0.9V0.908203L1.75723 0.916992V0.933985L1.76543 0.942773V0.950976L1.77422 0.959766V0.976758L1.78301 1.00254V1.01953L1.79121 1.04531V1.09688V1.14844L1.78301 1.38867H2.82012V0.822657V0.796875V0.762891L2.81133 0.73711V0.702539L2.80312 0.676758L2.79434 0.650977L2.78555 0.625782V0.6L2.76855 0.574219L2.75977 0.548438L2.75156 0.531446L2.73457 0.505664L2.72578 0.479883L2.70879 0.46289L2.69121 0.43711L2.68301 0.419531L2.66543 0.402539L2.64844 0.385547L2.62266 0.359766L2.60566 0.342774L2.57168 0.308203L2.52832 0.274219L2.47734 0.248438L2.43457 0.222656L2.38301 0.196875L2.33145 0.171094L2.27988 0.145312L2.22012 0.12832L2.10879 0.094336L1.98867 0.0685546L1.87734 0.0427732L1.74844 0.0257814L1.62832 0.0169927L1.39687 0Z" fill="#074CA1"/>
<path id="XMLID_8_" d="M28.7053 4.50039L28.8342 4.50859L28.9625 4.50039L29.0738 4.4916L29.177 4.48281L29.2713 4.46582L29.3568 4.44004L29.3996 4.43184L29.4424 4.41426L29.477 4.40605L29.5109 4.38906L29.5455 4.37148L29.5795 4.35449L29.6141 4.3375L29.6398 4.31992L29.6738 4.30293L29.6996 4.27715L29.7254 4.26016L29.7424 4.23438L29.7682 4.21738L29.7852 4.1916L29.8109 4.16582L29.8279 4.14004L29.8455 4.12305L29.8625 4.09727L29.8795 4.07148L29.8883 4.0457L29.9053 4.01992L29.9141 3.99473L29.9311 3.93438L29.948 3.88281L29.965 3.83184L29.9738 3.77148L29.9826 3.71992L29.9908 3.66016L29.9996 3.60859V3.49726V3.39473V3.21426V2.10859H28.6537V2.70039H28.9279V3.39473V3.41172V3.42871V3.4375L28.9197 3.45449V3.47148V3.48027L28.9109 3.49726L28.9027 3.50605V3.52305L28.8939 3.53183L28.8852 3.54883L28.877 3.55762L28.8682 3.57461L28.8594 3.58281L28.8512 3.5916L28.8424 3.60039L28.8342 3.60859L28.8254 3.61738L28.8084 3.62617L28.7996 3.63437L28.7908 3.64316L28.7738 3.65137L28.765 3.66016L28.748 3.66895H28.7398L28.7223 3.67715H28.7141L28.6965 3.68594H28.6795H28.6625H28.6537H28.6367H28.6197H28.6027H28.5939H28.577L28.5594 3.67715H28.5512L28.5342 3.66895H28.5254L28.5084 3.66016L28.4996 3.65137L28.4826 3.64316L28.4738 3.63437L28.465 3.62617L28.448 3.61738L28.4398 3.60859L28.4311 3.60039L28.4223 3.5916L28.4141 3.58281L28.4053 3.57461L28.3965 3.55762L28.3883 3.54883L28.3795 3.53183L28.3713 3.52305V3.50605L28.3625 3.49726L28.3537 3.48027V3.47148V3.45449L28.3455 3.4375V3.42871V3.41172V3.39473V1.12305V1.11426V1.09727V1.08027L28.3537 1.06328V1.05449V1.0375L28.3625 1.02871L28.3713 1.01172V1.00293L28.3795 0.985938L28.3883 0.977148L28.3965 0.960156L28.4053 0.951367L28.4141 0.943163L28.4223 0.926172L28.4311 0.917382L28.4398 0.908593L28.448 0.90039L28.465 0.891602L28.4738 0.882812L28.4826 0.874609L28.4996 0.86582H28.5084L28.5254 0.857617L28.5342 0.848827H28.5512L28.5594 0.840039H28.577H28.5939L28.6027 0.831836H28.6197H28.6367H28.6537H28.6625L28.6795 0.840039H28.6965H28.7141L28.7223 0.848827H28.7398L28.748 0.857617L28.765 0.86582H28.7738L28.7908 0.874609L28.7996 0.882812L28.8084 0.891602L28.8254 0.90039L28.8342 0.908593L28.8424 0.917382L28.8512 0.926172L28.8594 0.943163L28.8682 0.951367L28.877 0.960156L28.8852 0.977148L28.8939 0.985938L28.9027 1.00293V1.01172L28.9109 1.02871L28.9197 1.0375V1.05449V1.06328L28.9279 1.08027V1.09727V1.11426V1.12305V1.50039H29.9996V1.0375L29.9908 0.977148V0.951367V0.917382L29.9826 0.891602V0.86582L29.9738 0.840039L29.965 0.814257L29.9568 0.789062L29.948 0.763281L29.9398 0.7375L29.9311 0.711718L29.9141 0.685937L29.9053 0.668945L29.8795 0.617382L29.8455 0.574609L29.8197 0.531836L29.777 0.497265L29.7424 0.454492L29.6996 0.419922L29.6568 0.385937L29.6141 0.351367L29.5713 0.326171L29.5197 0.291601L29.4682 0.26582L29.4166 0.240038L29.3568 0.214257L29.3053 0.197265L29.2455 0.180273L29.1254 0.145702L29.0053 0.119922L28.877 0.0947262L28.748 0.0859375H28.6197H28.4908L28.3713 0.0947262L28.2424 0.111718L28.1223 0.137499L28.0027 0.171484L27.9424 0.189062L27.8908 0.214257L27.8311 0.231835L27.7795 0.257617L27.7279 0.282813L27.677 0.317383L27.6342 0.343164L27.5908 0.377149L27.548 0.411719L27.5053 0.445703L27.4625 0.489062L27.4279 0.523046L27.4027 0.56582L27.3682 0.608594L27.3424 0.651367L27.3342 0.677148L27.3166 0.70293L27.3084 0.719921L27.2996 0.745703L27.2908 0.771484L27.2826 0.797266L27.2738 0.823047L27.265 0.848827V0.874609L27.2568 0.908593V0.934375V0.960156L27.248 1.01992V3.57461V3.60859L27.2568 3.65137V3.68594V3.71992L27.265 3.75449L27.2738 3.78906L27.2826 3.82305L27.2908 3.85762L27.2996 3.88281L27.3084 3.91738L27.3254 3.94316L27.3342 3.96895L27.3512 3.99473L27.3682 4.01992L27.377 4.0457L27.3939 4.07148L27.4197 4.09727L27.4367 4.12305L27.4537 4.14004L27.4713 4.16582L27.4965 4.18281L27.5141 4.20039L27.565 4.24316L27.6084 4.27715L27.6594 4.30293L27.7109 4.32871L27.7713 4.35449L27.8223 4.38027L27.8826 4.40605L27.9424 4.42305L28.0027 4.44004L28.1223 4.46582L28.2424 4.48281L28.3713 4.50039H28.4908L28.6027 4.50859L28.7053 4.50039Z" fill="#074CA1"/>
</g>
</svg>
