<svg width="30" height="30" viewBox="0 0 30 30" fill="none" xmlns="http://www.w3.org/2000/svg">
<g id="Group 122">
<rect id="Rectangle 780" x="4.66211" y="4.66406" width="8.93478" height="8.93478" stroke="white" stroke-width="1.5"/>
<rect id="Rectangle 782" x="4.66211" y="16.4023" width="8.93478" height="8.93478" stroke="white" stroke-width="1.5"/>
<rect id="Rectangle 781" x="16.4023" y="4.66406" width="8.93478" height="8.93478" stroke="white" stroke-width="1.5"/>
<line id="Line 245" x1="1" y1="3.12243e-08" x2="1" y2="7.82609" stroke="white" stroke-width="2"/>
<line id="Line 250" x1="28.3906" y1="2.91426e-08" x2="28.3906" y2="7.82609" stroke="white" stroke-width="2"/>
<line id="Line 247" x1="1" y1="22.1758" x2="1" y2="28.6975" stroke="white" stroke-width="2"/>
<line id="Line 252" x1="29" y1="23" x2="29" y2="28.2174" stroke="white" stroke-width="2"/>
<line id="Line 246" y1="1" x2="7.82609" y2="1" stroke="white" stroke-width="2"/>
<line id="Line 249" x1="21" y1="1" x2="28.8261" y2="1" stroke="white" stroke-width="2"/>
<line id="Line 248" y1="29" x2="7.82609" y2="29" stroke="white" stroke-width="2"/>
<line id="Line 251" x1="22.1738" y1="29" x2="29.9999" y2="29" stroke="white" stroke-width="2"/>
<rect id="Rectangle 783" x="15.6523" y="15.6523" width="2.6087" height="2.6087" fill="white"/>
<rect id="Rectangle 784" x="20.8691" y="15.6523" width="2.6087" height="2.6087" fill="white"/>
<rect id="Rectangle 785" x="18.2617" y="18.2617" width="2.6087" height="2.6087" fill="white"/>
<rect id="Rectangle 786" x="15.6523" y="20.8711" width="2.6087" height="2.6087" fill="white"/>
<rect id="Rectangle 787" x="20.8691" y="20.8711" width="2.6087" height="2.6087" fill="white"/>
<rect id="Rectangle 788" x="23.4785" y="23.4766" width="2.6087" height="2.6087" fill="white"/>
<rect id="Rectangle 789" x="18.2617" y="23.4766" width="2.6087" height="2.6087" fill="white"/>
<rect id="Rectangle 790" x="23.4785" y="18.2617" width="2.6087" height="2.6087" fill="white"/>
</g>
</svg>
