<svg width="19" height="19" viewBox="0 0 19 19" fill="none" xmlns="http://www.w3.org/2000/svg">
<path id="Star 89" d="M8.72908 2.09357C9.46775 0.187289 12.2629 0.530493 12.5185 2.55885C12.6719 3.77631 13.8895 4.55841 15.0605 4.19166C17.0114 3.58063 18.4858 5.97997 17.0593 7.44444C16.2031 8.32344 16.3508 9.763 17.3676 10.4499C19.0618 11.5942 18.1052 14.2429 16.0708 14.0407C14.8497 13.9194 13.8163 14.9324 13.9133 16.1556C14.0749 18.1936 11.4076 19.0972 10.2973 17.3806C9.63084 16.3502 8.19451 16.1739 7.2986 17.0124C5.80597 18.4094 3.43652 16.8874 4.08634 14.949C4.47637 13.7856 3.71872 12.5527 2.50455 12.375C0.481699 12.079 0.194314 9.27757 2.11495 8.57707C3.26775 8.1566 3.7593 6.79553 3.14118 5.7355C2.11134 3.96943 4.12243 1.99807 5.86761 3.06292C6.9151 3.70207 8.28571 3.23776 8.72908 2.09357Z" fill="#9449B8"/>
</svg>
