<svg width="26" height="40" viewBox="0 0 26 40" fill="none" xmlns="http://www.w3.org/2000/svg">
<g id="Group">
<path id="Vector" d="M6.18313 16.4781H19.8169C20.3425 16.4781 20.7907 16.0453 20.7907 15.5196C20.7907 14.9941 20.3425 14.5457 19.8169 14.5457H6.18313C5.65756 14.5457 5.20929 14.9941 5.20929 15.5196C5.20929 16.0453 5.65756 16.4781 6.18313 16.4781ZM6.18313 21.9655H19.8169C20.358 21.9655 20.7907 21.5327 20.7907 20.9918C20.7907 20.4661 20.358 20.0488 19.8169 20.0488H6.18313C5.6421 20.0488 5.20929 20.4661 5.20929 20.9918C5.20929 21.5327 5.6421 21.9655 6.18313 21.9655ZM6.18313 27.7468H13.0464C13.572 27.7468 14.0048 27.3139 14.0048 26.7884C14.0048 26.2629 13.5874 25.83 13.0464 25.83H6.18313C5.6421 25.83 5.20929 26.2629 5.20929 26.7884C5.20929 27.3139 5.65756 27.7468 6.18313 27.7468ZM4.79192 37.4543H21.2081C24.4079 37.4543 26 35.8467 26 32.6005V9.16649C26 5.99764 24.4698 4.31273 21.3781 4.31273H21.0072C21.0226 4.43639 21.0226 4.57551 21.0226 4.69918V6.09038C21.0226 6.33771 21.0072 6.58503 20.9608 6.80144H21.3318C22.7848 6.80144 23.5113 7.74436 23.5113 9.19741V32.5696C23.5113 34.1154 22.692 34.9656 21.0845 34.9656H4.91558C3.30797 34.9656 2.48871 34.1154 2.48871 32.5696V9.19741C2.48871 7.74436 3.21523 6.80144 4.66826 6.80144H5.03925C4.99288 6.58503 4.97742 6.33771 4.97742 6.09038V4.69918C4.97742 4.57551 4.97742 4.43639 4.99288 4.31273H4.62189C1.53033 4.31273 0 5.99764 0 9.16649V32.6005C0 35.8467 1.59215 37.4543 4.79192 37.4543ZM8.22357 7.85257H17.7765C18.673 7.85257 19.2141 7.28063 19.2141 6.32225V4.69918C19.2141 3.7408 18.673 3.16885 17.7765 3.16885H16.3543C16.2462 1.42211 14.7931 0 13 0C11.2069 0 9.75388 1.42211 9.64568 3.16885H8.22357C7.32701 3.16885 6.78598 3.7408 6.78598 4.69918V6.32225C6.78598 7.28063 7.32701 7.85257 8.22357 7.85257ZM13 4.63734C12.2581 4.63734 11.6552 4.01904 11.6552 3.29251C11.6552 2.53509 12.2581 1.93222 13 1.93222C13.742 1.93222 14.3449 2.53509 14.3449 3.29251C14.3449 4.01904 13.742 4.63734 13 4.63734Z" fill="#323232"/>
</g>
</svg>
