<svg width="20" height="14" viewBox="0 0 20 14" fill="none" xmlns="http://www.w3.org/2000/svg">
<path id="Vector" d="M5.63771 1.97399H19.196C19.6427 1.97399 20 1.6386 20 1.20739C20 0.7666 19.6427 0.431212 19.196 0.431212H5.63771C5.18114 0.431212 4.83374 0.7666 4.83374 1.20739C4.83374 1.6386 5.18114 1.97399 5.63771 1.97399ZM5.63771 7.7714H19.196C19.6427 7.7714 20 7.42643 20 6.99522C20 6.56401 19.6427 6.22862 19.196 6.22862H5.63771C5.18114 6.22862 4.83374 6.56401 4.83374 6.99522C4.83374 7.42643 5.18114 7.7714 5.63771 7.7714ZM5.63771 13.5593H19.196C19.6427 13.5593 20 13.2238 20 12.7927C20 12.3518 19.6427 12.0165 19.196 12.0165H5.63771C5.18114 12.0165 4.83374 12.3518 4.83374 12.7927C4.83374 13.2238 5.18114 13.5593 5.63771 13.5593ZM1.25062 2.4052C1.94541 2.4052 2.50123 1.86858 2.50123 1.20739C2.50123 0.53662 1.94541 0 1.25062 0C0.555831 0 0 0.53662 0 1.20739C0 1.86858 0.555831 2.4052 1.25062 2.4052ZM1.25062 8.20263C1.94541 8.20263 2.50123 7.666 2.50123 6.99522C2.50123 6.32444 1.94541 5.78783 1.25062 5.78783C0.555831 5.78783 0 6.32444 0 6.99522C0 7.666 0.555831 8.20263 1.25062 8.20263ZM1.25062 14C1.94541 14 2.50123 13.4539 2.50123 12.7927C2.50123 12.1219 1.94541 11.5852 1.25062 11.5852C0.555831 11.5852 0 12.1219 0 12.7927C0 13.4539 0.555831 14 1.25062 14Z" fill="#646464"/>
</svg>
